<svg xmlns="http://www.w3.org/2000/svg" viewBox="92 142 291 191" width="291" height="191">
  <path d="M0 480h480V0H0v480m237.188 -256.875c3.853 -20.869 18.478 -40.589 38.077 -50.048C296.85 162.178 324.689 164.072 344.531 177.656c17.466 11.766 28.983 31.003 30.469 51.563 0.919 0.68 0.263 2.25 0.469 3.281 3.248 39.53 -32.948 75.427 -72.188 73.125 -1.331 -0.277 -3.272 0.572 -4.219 -0.469 -15.516 -1.547 -30.811 -7.927 -41.719 -19.688 -11.138 -9.619 -16.964 -23.555 -20.156 -37.031 -6.328 47.784 -68.85 74.798 -107.695 45.82 -40.383 -25.238 -40.828 -90.947 -0.234 -116.25C167.878 148.978 230.723 175.172 237.188 223.125Z" fill="none" stroke="#eef4f5" stroke-width="0.140625"/>
  <path d="M237.188 248.438c-0.277 -1.364 0.745 -2.372 0.469 -3.75 -5.114 -0.802 -11.32 0.68 -14.063 -5.156 -3.712 5.362 -10.078 5.138 -16.406 4.688 -6.192 1.491 -8.723 -5.62 -13.125 -8.438 3.736 -6.103 10.322 -9.656 17.813 -7.969h25.781c0.333 -1.692 -0.577 -3.042 -0.469 -4.688 -6.464 -47.953 -69.309 -74.147 -107.93 -45.117 -40.594 25.303 -40.148 91.013 0.234 116.25C168.338 323.236 230.859 296.222 237.188 248.438M167.813 188.906c2.991 8.695 -3.075 15.544 -8.869 21.131 -7.237 6.722 -1.805 15.516 1.369 22.463 -6.595 -5.016 -13.631 -15.061 -6.445 -22.383 6.169 -6.192 14.002 -12.159 13.945 -21.211m5.625 16.406c-3.652 3.834 -9.623 7.359 -8.438 13.594 2.372 4.795 5.081 11.766 -1.406 15 2.545 -6.436 -6.319 -11.484 -2.452 -17.92 2.203 -5.072 7.383 -8.742 12.295 -10.673m-24.375 24.375c-0.431 2.789 -5.212 2.119 -6.563 4.688 10.228 3.553 22.05 0.933 32.344 0.938 -6.122 2.18 -13.036 2.967 -19.688 3.75 -6.108 -0.844 -15.534 1.041 -18.75 -4.688 3.942 -2.119 8.353 -3.361 12.656 -4.688m27.656 19.688c3.155 -2.133 7.139 -4.289 8.798 -8.077 3.038 -5.381 -3.023 -9.412 -7.392 -7.861 4.116 -5.906 13.327 -1.87 12.188 5.156 -1.786 5.808 -7.997 9.558 -13.594 10.781m-28.594 -8.438c0.9 4.003 7.008 2.358 10.313 2.813 3.834 -0.281 7.673 -0.605 11.25 -1.875 0.534 1.491 2.583 1.875 2.813 3.281 -8.662 2.105 -21.895 6.323 -28.125 -2.344 1.467 -0.291 2.109 -2.189 3.75 -1.875m22.969 12.656c-4.945 1.697 -9.942 3.558 -15.469 3.281 -3.492 -0.131 -12.286 -3.328 -7.5 -7.5 3.38 2.395 7.997 3.736 12.22 2.377 3.844 0.408 9.173 -3.736 10.748 1.842m-26.25 1.875c-2.855 0.858 -10.856 3.117 -3.717 4.655 13.88 0.909 28.805 2.587 41.686 -2.78 -11.662 7.228 -27.398 6.375 -41.25 5.625 -2.934 -0.698 -11.419 -0.534 -9.487 -4.805 3.858 -1.758 8.466 -3.797 12.769 -2.695m41.25 5.156c-5.086 5.339 -14.222 5.681 -21.563 6.563 -8.044 0.642 -18.502 1.664 -24.844 -2.813 15.375 2.264 32.063 1.809 46.406 -3.75Z" fill="none" stroke="#e37d34" stroke-width="0.140625"/>
  <path d="M237.188 223.125c-0.108 1.645 0.802 2.995 0.469 4.688h9.844c5.47 -14.405 29.714 -11.203 31.556 4.069 4.378 15.309 -16.922 28.627 -28.158 16.908 -2.541 -5.222 -8.264 -5.428 -13.242 -4.102 0.277 1.378 -0.745 2.386 -0.469 3.75 3.192 13.477 9.019 27.412 20.156 37.031 1.116 -0.68 2.644 0.891 3.281 1.875 0.839 -0.605 0.253 -2.339 1.406 -2.813 0.9 0.947 1.805 0.858 0.938 -0.469 1.678 -0.797 1.833 -0.084 2.813 0.469 0.858 -2.541 4.697 -3.919 7.031 -3.281 0.488 -0.98 1.772 -1.514 1.406 -2.813 0.938 2.892 1.069 -1.472 3.281 -0.469 -1.134 -1.988 0.605 -0.684 1.406 0 -1.055 -2.667 -0.492 -2.391 0.469 -4.688 1.589 1.941 1.186 -1.284 3.281 -0.469 -0.356 -1.458 1.266 -2.981 -1.406 -3.281 0.488 -0.666 2.175 -0.492 1.875 -1.875 0.577 -2.967 2.067 -5.691 3.244 -8.475 -0.155 -3.525 4.209 -6.155 5.194 -1.837 0.206 -0.605 0.745 -1.036 1.406 -0.938 0.145 -3.173 -2.63 -5.634 -3.281 -7.969 -4.453 -3.347 -2.348 -9.239 -2.813 -14.063 0.98 0.619 1.688 1.542 2.813 1.875 -0.947 -1.031 -1.073 -4.111 0.938 -2.813 -5.672 -2.906 -4.097 -9.595 -4.219 -15 2.442 1.106 4.195 3.731 7.031 4.219 0.82 -1.2 -1.875 -3.188 0 -3.281 -3.112 -1.659 -9.623 -5.287 -5.733 -9.483 7.683 -7.472 19.289 -6.394 29.639 -6.455 0.347 -0.811 1.134 -1.519 0.469 -2.344 1.453 0.525 3.244 -1.022 2.344 -2.344 1.584 0.572 1.533 -0.886 2.344 0.938 0.178 -2.883 1.95 -0.938 1.875 -4.219 0.319 2.677 4.261 0.216 1.875 -1.406 2.166 1.092 3.769 -1.823 5.606 -3.3 1.852 -1.833 4.153 -6.22 6.112 -3.263 0.281 -1.903 2.747 -2.587 1.406 -4.688 1.655 -1.186 3.112 -1.317 5.156 -2.344 -1.013 -1.158 -1.969 -1.636 0 -1.875 -0.459 -0.445 -1.317 -0.952 0 -0.938 -19.842 -13.584 -47.681 -15.478 -69.267 -4.58C255.666 182.536 241.041 202.256 237.188 223.125Z" fill="none" stroke="#1a96c2" stroke-width="0.140625"/>
  <path d="M317.344 203.438c5.798 1.514 15.675 2.222 16.406 9.844 -2.231 7.008 -11.634 7.308 -17.813 8.438 -3.244 0.769 -8.039 0.787 -11.25 0 -3.919 -0.108 -7.622 -1.116 -11.25 -2.344 -1.875 0.094 0.82 2.081 0 3.281 6.548 2.723 13.805 2.911 21.094 2.813 0.534 -0.877 1.936 -0.286 2.813 -0.469 5.939 -0.727 11.789 -2.531 16.406 -6.563 0.131 6.009 1.439 14.297 -6.131 15.9 -11.587 4.664 -25.706 4.392 -36.994 -0.9 -2.011 -1.298 -1.884 1.781 -0.938 2.813 13.289 6.806 31.955 6.98 44.063 -2.344 0.183 6.122 1.392 14.184 -6.202 15.83 -11.892 4.697 -26.311 3.628 -37.861 -1.298 0.652 2.334 3.427 4.795 3.281 7.969 -0.661 -0.098 -1.2 0.333 -1.406 0.938 1.045 3.337 2.7 6.492 3.75 9.844 -0.652 0.961 -3.08 0.581 -2.813 -0.938 -0.267 -0.441 -0.539 -0.853 -0.469 -1.406 -1.655 -0.75 -3.975 -0.727 -5.625 0 -0.422 1.509 -1.275 3.356 -3.281 2.813 0.3 1.383 -1.387 1.209 -1.875 1.875 2.672 0.3 1.05 1.823 1.406 3.281 -2.095 -0.816 -1.692 2.409 -3.281 0.469 -0.961 2.297 -1.523 2.02 -0.469 4.688 -0.802 -0.684 -2.541 -1.988 -1.406 0 -2.212 -1.003 -2.344 3.361 -3.281 0.469 0.366 1.298 -0.919 1.833 -1.406 2.813 -2.334 -0.638 -6.173 0.741 -7.031 3.281 -0.98 -0.553 -1.134 -1.266 -2.813 -0.469 0.867 1.327 -0.037 1.416 -0.938 0.469 -1.153 0.473 -0.567 2.208 -1.406 2.813 -0.638 -0.984 -2.166 -2.555 -3.281 -1.875 10.908 11.761 26.203 18.141 41.719 19.688 1.331 0.277 3.272 -0.572 4.219 0.469 39.239 2.302 75.436 -33.595 72.188 -73.125 -0.919 -0.68 -0.263 -2.25 -0.469 -3.281 -1.486 -20.559 -13.003 -39.797 -30.469 -51.563 -1.317 -0.014 -0.459 0.492 0 0.938 -1.969 0.239 -1.013 0.717 0 1.875 -2.044 1.027 -3.502 1.158 -5.156 2.344 1.341 2.1 -1.125 2.784 -1.406 4.688 -1.959 -2.958 -4.261 1.43 -6.112 3.263 -1.837 1.477 -3.441 4.392 -5.606 3.3 2.386 1.622 -1.556 4.083 -1.875 1.406 0.075 3.281 -1.697 1.336 -1.875 4.219 -0.811 -1.823 -0.759 -0.366 -2.344 -0.938 0.9 1.322 -0.891 2.869 -2.344 2.344 0.666 0.825 -0.122 1.533 -0.469 2.344m-15.469 54.844c4.477 2.948 -1.683 0.736 -3.164 2.461 -2.362 3.225 1.809 6.722 4.57 4.102 1.598 3.534 -5.002 3.717 -6.445 1.289 -2.067 -2.231 -1.42 -7.753 2.227 -7.852 0.483 -0.67 2.362 -0.792 2.813 0m8.438 0c0.83 -0.098 1.58 0.722 1.875 1.406 -1.866 0.881 -5.292 -1.017 -5.611 2.358 -1.116 3.637 2.62 4.378 5.142 3.267 -3.398 8.039 -12.609 -5.447 -4.219 -7.031 0.483 -0.67 2.362 -0.792 2.813 0m16.875 0c1.073 -0.183 1.598 0.97 1.406 1.875 -2.241 -1.397 -5.489 0.839 -1.772 1.772 7.495 3.066 -4.988 9.403 -3.853 2.916 1.266 0.802 4.167 1.669 3.75 -0.938 -3.281 0.844 -6.37 -4.716 -2.344 -5.625 0.483 -0.67 2.362 -0.792 2.813 0m3.281 6.563c3.202 2.194 5.789 -0.736 1.298 -1.767 -3.352 -1.027 -0.942 -5.794 1.988 -5.259 5.147 1.402 0.647 1.95 -1.373 2.845 1.505 1.411 6.314 2.344 4.059 5.466 -1.336 2.428 -7.552 2.025 -5.972 -1.284m-17.344 -0.469c-0.67 -0.483 -0.792 -2.362 0 -2.813 0.652 -5.522 9.745 -3.506 8.438 1.875h-6.563c0.356 4.584 5.475 -0.244 6.094 2.813 -2.503 2.245 -7.097 1.664 -7.969 -1.875Z" fill="none" stroke="#365596" stroke-width="0.140625"/>
  <path d="M167.813 188.906c0.056 9.052 -7.777 15.019 -13.945 21.211 -7.186 7.322 -0.15 17.367 6.445 22.383 -3.173 -6.947 -8.606 -15.741 -1.369 -22.463 5.794 -5.588 11.859 -12.436 8.869 -21.131Zm125.625 30.469c3.628 1.228 7.331 2.236 11.25 2.344h11.25c6.178 -1.13 15.581 -1.43 17.813 -8.438 -0.731 -7.622 -10.608 -8.33 -16.406 -9.844 -10.35 0.061 -21.956 -1.017 -29.639 6.455 -3.891 4.195 2.62 7.823 5.733 9.483Z" fill="none" stroke="#eef4f5" stroke-width="0.140625"/>
  <path d="M173.438 205.313c-4.913 1.931 -10.092 5.602 -12.295 10.673 -3.867 6.436 4.997 11.484 2.452 17.92 6.487 -3.234 3.778 -10.205 1.406 -15 -1.186 -6.234 4.786 -9.759 8.438 -13.594Zm64.219 22.5h-25.781c-7.491 -1.688 -14.077 1.866 -17.813 7.969 4.402 2.817 6.933 9.928 13.125 8.438 6.328 0.45 12.694 0.675 16.406 -4.688 2.742 5.836 8.948 4.355 14.063 5.156 4.978 -1.327 10.702 -1.12 13.242 4.102 11.236 11.719 32.536 -1.598 28.158 -16.908 -1.842 -15.272 -26.086 -18.473 -31.556 -4.069h-9.844m0 11.719c-4.453 0.145 -9.253 0.802 -11.836 -3.633 -4.298 -2.611 -7.031 2.569 -9.609 5.156 -2.972 0.112 -8.339 -5.916 -9.961 0.352 -2.658 -0.952 -4.144 -4.158 -6.563 -5.625 2.906 -6.23 11.78 -2.081 17.344 -3.281h33.75c2.25 -13.786 24.675 -11.067 23.906 2.813 1.102 13.767 -20.798 18.159 -23.906 4.219zm52.969 -6.094c11.287 5.292 25.406 5.564 36.994 0.9 7.57 -1.603 6.262 -9.891 6.131 -15.9 -4.617 4.031 -10.467 5.836 -16.406 6.563 -0.534 0.877 -1.936 0.286 -2.813 0.469 -7.289 0.098 -14.545 -0.089 -21.094 -2.813 -2.836 -0.488 -4.589 -3.112 -7.031 -4.219 0.122 5.405 -1.453 12.094 4.219 15Z" fill="none" stroke="#eef4f5" stroke-width="0.140625"/>
  <path d="M315.938 221.719h-11.25c3.211 0.787 8.006 0.769 11.25 0Zm-78.281 10.781v7.031h13.125c3.108 13.941 25.008 9.548 23.906 -4.219 0.769 -13.88 -21.656 -16.598 -23.906 -2.813h-13.125m27.188 -3.75c8.367 2.888 4.416 16.861 -4.533 13.908 -8.888 -2.466 -4.533 -16.861 4.533 -13.908Zm49.688 -3.281c0.877 -0.183 2.278 0.408 2.813 -0.469 -0.877 0.183 -2.278 -0.408 -2.813 0.469Z" fill="none" stroke="#1a96c2" stroke-width="0.140625"/>
  <path d="M264.844 228.75c-9.066 -2.953 -13.42 11.442 -4.533 13.908 8.948 2.953 12.9 -11.02 4.533 -13.908Z" fill="none" stroke="#eef4f5" stroke-width="0.140625"/>
  <path d="M375.469 232.5c-0.206 -1.031 0.45 -2.602 -0.469 -3.281 0.206 1.031 -0.45 2.602 0.469 3.281Zm-226.406 -2.813c-4.303 1.327 -8.714 2.569 -12.656 4.688 3.216 5.728 12.642 3.844 18.75 4.688 6.652 -0.783 13.566 -1.57 19.688 -3.75 -10.294 -0.005 -22.116 2.616 -32.344 -0.938 1.35 -2.569 6.131 -1.898 6.563 -4.688Zm27.656 19.688c5.597 -1.223 11.808 -4.973 13.594 -10.781 1.139 -7.027 -8.072 -11.063 -12.188 -5.156 4.369 -1.552 10.43 2.48 7.392 7.861 -1.659 3.788 -5.644 5.944 -8.798 8.077Z" fill="none" stroke="#1a96c2" stroke-width="0.140625"/>
  <path d="M237.656 239.531v-7.031h-20.625c-5.564 1.2 -14.438 -2.948 -17.344 3.281 2.419 1.467 3.905 4.673 6.563 5.625 1.622 -6.267 6.989 -0.239 9.961 -0.352 2.578 -2.587 5.311 -7.767 9.609 -5.156 2.583 4.434 7.383 3.778 11.836 3.633Z" fill="none" stroke="#e37d34" stroke-width="0.140625"/>
  <path d="M289.688 236.25c-1.125 -0.333 -1.833 -1.256 -2.813 -1.875 0.464 4.823 -1.641 10.716 2.813 14.063 11.55 4.927 25.969 5.995 37.861 1.298 7.594 -1.645 6.384 -9.708 6.202 -15.83 -12.108 9.323 -30.773 9.15 -44.063 2.344Z" fill="none" stroke="#eef4f5" stroke-width="0.140625"/>
  <path d="M148.125 240.938c-1.641 -0.314 -2.283 1.584 -3.75 1.875 6.23 8.667 19.463 4.448 28.125 2.344 -0.23 -1.406 -2.278 -1.791 -2.813 -3.281 -3.577 1.27 -7.416 1.594 -11.25 1.875 -3.305 -0.455 -9.412 1.191 -10.313 -2.813Zm22.969 12.656c-1.575 -5.578 -6.905 -1.434 -10.748 -1.842 -4.223 1.359 -8.841 0.019 -12.22 -2.377 -4.786 4.172 4.008 7.369 7.5 7.5 5.527 0.277 10.523 -1.584 15.469 -3.281Z" fill="none" stroke="#1a96c2" stroke-width="0.140625"/>
  <path d="M144.844 255.469c-4.303 -1.102 -8.911 0.938 -12.769 2.695 -1.931 4.27 6.553 4.106 9.487 4.805 13.852 0.75 29.587 1.603 41.25 -5.625 -12.881 5.367 -27.806 3.689 -41.686 2.78 -7.139 -1.537 0.863 -3.797 3.717 -4.655Z" fill="none" stroke="#1a96c2" stroke-width="0.140625"/>
  <path d="M283.125 267.656c2.006 0.544 2.859 -1.303 3.281 -2.813 0.998 -1.472 4.641 -1.5 5.625 0 -0.07 0.553 0.202 0.966 0.469 1.406 0.492 1.05 1.697 1.008 2.813 0.938 -1.05 -3.352 -2.705 -6.506 -3.75 -9.844 -0.984 -4.317 -5.348 -1.688 -5.194 1.837 -1.177 2.784 -2.667 5.508 -3.244 8.475m7.5 -6.094c1.697 1.402 -4.533 1.425 -2.813 0 0.403 -1.228 0.577 -2.813 1.406 -3.75 0.441 1.27 1.125 2.433 1.406 3.75Z" fill="none" stroke="#eef4f5" stroke-width="0.140625"/>
  <path d="M287.813 261.563c0.483 0.67 2.362 0.792 2.813 0 -0.281 -1.317 -0.966 -2.48 -1.406 -3.75 -0.83 0.938 -1.003 2.522 -1.406 3.75Z" fill="none" stroke="#365596" stroke-width="0.140625"/>
  <path d="M299.063 258.281h2.813c-0.45 -0.792 -2.33 -0.67 -2.813 0Zm8.438 0h2.813c-0.45 -0.792 -2.33 -0.67 -2.813 0Zm16.875 0h2.813c-0.45 -0.792 -2.33 -0.67 -2.813 0Z" fill="none" stroke="#1a96c2" stroke-width="0.140625"/>
  <path d="M330.469 264.844c-1.58 3.309 4.636 3.712 5.972 1.284 2.255 -3.122 -2.555 -4.055 -4.059 -5.466 2.02 -0.895 6.52 -1.444 1.373 -2.845 -2.93 -0.534 -5.339 4.233 -1.988 5.259 4.491 1.031 1.903 3.961 -1.298 1.767Zm-28.594 -6.563h-2.813c-3.647 0.098 -4.294 5.62 -2.227 7.852 1.444 2.428 8.044 2.245 6.445 -1.289 -2.761 2.62 -6.933 -0.877 -4.57 -4.102 1.481 -1.725 7.641 0.488 3.164 -2.461Z" fill="none" stroke="#eef4f5" stroke-width="0.140625"/>
  <path d="M310.313 258.281h-2.813c-8.391 1.584 0.82 15.07 4.219 7.031 -2.522 1.111 -6.258 0.37 -5.142 -3.267 0.319 -3.375 3.745 -1.477 5.611 -2.358 -0.295 -0.684 -1.045 -1.505 -1.875 -1.406Zm2.813 3.281v2.813c0.872 3.539 5.466 4.12 7.969 1.875 -0.619 -3.056 -5.737 1.772 -6.094 -2.813h6.563c1.308 -5.381 -7.786 -7.397 -8.438 -1.875m5.625 0c-1.181 -0.263 -2.953 0.558 -3.75 -0.469 0.572 -1.931 3.759 -1.772 3.75 0.469Z" fill="none" stroke="#eef4f5" stroke-width="0.140625"/>
  <path d="M327.188 258.281h-2.813c-4.027 0.909 -0.938 6.469 2.344 5.625 0.417 2.606 -2.484 1.739 -3.75 0.938 -1.134 6.487 11.348 0.15 3.853 -2.916 -3.717 -0.933 -0.469 -3.169 1.772 -1.772 0.192 -0.905 -0.333 -2.058 -1.406 -1.875Z" fill="none" stroke="#eef4f5" stroke-width="0.140625"/>
  <path d="M318.75 261.563c0.009 -2.241 -3.178 -2.4 -3.75 -0.469 0.797 1.027 2.569 0.206 3.75 0.469Z" fill="none" stroke="#365596" stroke-width="0.140625"/>
  <path d="M186.094 260.625c-14.344 5.559 -31.031 6.014 -46.406 3.75 6.342 4.477 16.8 3.455 24.844 2.813 7.341 -0.881 16.477 -1.223 21.563 -6.563Zm104.531 0.938c-0.45 0.792 -2.33 0.67 -2.813 0 -1.72 1.425 4.509 1.402 2.813 0Zm22.5 2.813v-2.813c-0.792 0.45 -0.67 2.33 0 2.813Zm-26.719 0.469c1.65 -0.727 3.97 -0.75 5.625 0 -0.984 -1.5 -4.627 -1.472 -5.625 0Zm8.906 2.344c-1.116 0.07 -2.32 0.112 -2.813 -0.938 -0.267 1.519 2.161 1.898 2.813 0.938Zm7.969 38.438c-0.947 -1.041 -2.888 -0.192 -4.219 -0.469 0.947 1.041 2.888 0.192 4.219 0.469Z" fill="none" stroke="#1a96c2" stroke-width="0.140625"/>
  <path d="M0 480h480V0H0z" fill="#eef4f5"/>
  <path d="M237.188 248.438c-0.277 -1.364 0.745 -2.372 0.469 -3.75 -5.114 -0.802 -11.32 0.68 -14.063 -5.156 -3.712 5.362 -10.078 5.138 -16.406 4.688 -6.192 1.491 -8.723 -5.62 -13.125 -8.438 3.736 -6.103 10.322 -9.656 17.813 -7.969h25.781c0.333 -1.692 -0.577 -3.042 -0.469 -4.688 -6.464 -47.953 -69.309 -74.147 -107.93 -45.117 -40.594 25.303 -40.148 91.013 0.234 116.25C168.338 323.236 230.859 296.222 237.188 248.438" fill="#e37d34"/>
  <path d="M237.188 223.125c-0.108 1.645 0.802 2.995 0.469 4.688h9.844c5.47 -14.405 29.714 -11.203 31.556 4.069 4.378 15.309 -16.922 28.627 -28.158 16.908 -2.541 -5.222 -8.264 -5.428 -13.242 -4.102 0.277 1.378 -0.745 2.386 -0.469 3.75 3.192 13.477 9.019 27.412 20.156 37.031 1.116 -0.68 2.644 0.891 3.281 1.875 0.839 -0.605 0.253 -2.339 1.406 -2.813 0.9 0.947 1.805 0.858 0.938 -0.469 1.678 -0.797 1.833 -0.084 2.813 0.469 0.858 -2.541 4.697 -3.919 7.031 -3.281 0.488 -0.98 1.772 -1.514 1.406 -2.813 0.938 2.892 1.069 -1.472 3.281 -0.469 -1.134 -1.988 0.605 -0.684 1.406 0 -1.055 -2.667 -0.492 -2.391 0.469 -4.688 1.589 1.941 1.186 -1.284 3.281 -0.469 -0.356 -1.458 1.266 -2.981 -1.406 -3.281 0.488 -0.666 2.175 -0.492 1.875 -1.875 0.577 -2.967 2.067 -5.691 3.244 -8.475 -0.155 -3.525 4.209 -6.155 5.194 -1.837 0.206 -0.605 0.745 -1.036 1.406 -0.938 0.145 -3.173 -2.63 -5.634 -3.281 -7.969 -4.453 -3.347 -2.348 -9.239 -2.813 -14.063 0.98 0.619 1.688 1.542 2.813 1.875 -0.947 -1.031 -1.073 -4.111 0.938 -2.813 -5.672 -2.906 -4.097 -9.595 -4.219 -15 2.442 1.106 4.195 3.731 7.031 4.219 0.82 -1.2 -1.875 -3.188 0 -3.281 -3.112 -1.659 -9.623 -5.287 -5.733 -9.483 7.683 -7.472 19.289 -6.394 29.639 -6.455 0.347 -0.811 1.134 -1.519 0.469 -2.344 1.453 0.525 3.244 -1.022 2.344 -2.344 1.584 0.572 1.533 -0.886 2.344 0.938 0.178 -2.883 1.95 -0.938 1.875 -4.219 0.319 2.677 4.261 0.216 1.875 -1.406 2.166 1.092 3.769 -1.823 5.606 -3.3 1.852 -1.833 4.153 -6.22 6.112 -3.263 0.281 -1.903 2.747 -2.587 1.406 -4.688 1.655 -1.186 3.112 -1.317 5.156 -2.344 -1.013 -1.158 -1.969 -1.636 0 -1.875 -0.459 -0.445 -1.317 -0.952 0 -0.938 -19.842 -13.584 -47.681 -15.478 -69.267 -4.58C255.666 182.536 241.041 202.256 237.188 223.125" fill="#1a96c2"/>
  <path d="M317.344 203.438c5.798 1.514 15.675 2.222 16.406 9.844 -2.231 7.008 -11.634 7.308 -17.813 8.438 -3.244 0.769 -8.039 0.787 -11.25 0 -3.919 -0.108 -7.622 -1.116 -11.25 -2.344 -1.875 0.094 0.82 2.081 0 3.281 6.548 2.723 13.805 2.911 21.094 2.813 0.534 -0.877 1.936 -0.286 2.813 -0.469 5.939 -0.727 11.789 -2.531 16.406 -6.563 0.131 6.009 1.439 14.297 -6.131 15.9 -11.587 4.664 -25.706 4.392 -36.994 -0.9 -2.011 -1.298 -1.884 1.781 -0.938 2.813 13.289 6.806 31.955 6.98 44.063 -2.344 0.183 6.122 1.392 14.184 -6.202 15.83 -11.892 4.697 -26.311 3.628 -37.861 -1.298 0.652 2.334 3.427 4.795 3.281 7.969 -0.661 -0.098 -1.2 0.333 -1.406 0.938 1.045 3.337 2.7 6.492 3.75 9.844 -0.652 0.961 -3.08 0.581 -2.813 -0.938 -0.267 -0.441 -0.539 -0.853 -0.469 -1.406 -1.655 -0.75 -3.975 -0.727 -5.625 0 -0.422 1.509 -1.275 3.356 -3.281 2.813 0.3 1.383 -1.387 1.209 -1.875 1.875 2.672 0.3 1.05 1.823 1.406 3.281 -2.095 -0.816 -1.692 2.409 -3.281 0.469 -0.961 2.297 -1.523 2.02 -0.469 4.688 -0.802 -0.684 -2.541 -1.988 -1.406 0 -2.212 -1.003 -2.344 3.361 -3.281 0.469 0.366 1.298 -0.919 1.833 -1.406 2.813 -2.334 -0.638 -6.173 0.741 -7.031 3.281 -0.98 -0.553 -1.134 -1.266 -2.813 -0.469 0.867 1.327 -0.037 1.416 -0.938 0.469 -1.153 0.473 -0.567 2.208 -1.406 2.813 -0.638 -0.984 -2.166 -2.555 -3.281 -1.875 10.908 11.761 26.203 18.141 41.719 19.688 1.331 0.277 3.272 -0.572 4.219 0.469 39.239 2.302 75.436 -33.595 72.188 -73.125 -0.919 -0.68 -0.263 -2.25 -0.469 -3.281 -1.486 -20.559 -13.003 -39.797 -30.469 -51.563 -1.317 -0.014 -0.459 0.492 0 0.938 -1.969 0.239 -1.013 0.717 0 1.875 -2.044 1.027 -3.502 1.158 -5.156 2.344 1.341 2.1 -1.125 2.784 -1.406 4.688 -1.959 -2.958 -4.261 1.43 -6.112 3.263 -1.837 1.477 -3.441 4.392 -5.606 3.3 2.386 1.622 -1.556 4.083 -1.875 1.406 0.075 3.281 -1.697 1.336 -1.875 4.219 -0.811 -1.823 -0.759 -0.366 -2.344 -0.938 0.9 1.322 -0.891 2.869 -2.344 2.344 0.666 0.825 -0.122 1.533 -0.469 2.344" fill="#365596"/>
  <path d="M167.813 188.906c0.056 9.052 -7.777 15.019 -13.945 21.211 -7.186 7.322 -0.15 17.367 6.445 22.383 -3.173 -6.947 -8.606 -15.741 -1.369 -22.463 5.794 -5.588 11.859 -12.436 8.869 -21.131m125.625 30.469c3.628 1.228 7.331 2.236 11.25 2.344h11.25c6.178 -1.13 15.581 -1.43 17.813 -8.438 -0.731 -7.622 -10.608 -8.33 -16.406 -9.844 -10.35 0.061 -21.956 -1.017 -29.639 6.455 -3.891 4.195 2.62 7.823 5.733 9.483" fill="#eef4f5"/>
  <path d="M173.438 205.313c-4.913 1.931 -10.092 5.602 -12.295 10.673 -3.867 6.436 4.997 11.484 2.452 17.92 6.487 -3.234 3.778 -10.205 1.406 -15 -1.186 -6.234 4.786 -9.759 8.438 -13.594m64.219 22.5h-25.781c-7.491 -1.688 -14.077 1.866 -17.813 7.969 4.402 2.817 6.933 9.928 13.125 8.438 6.328 0.45 12.694 0.675 16.406 -4.688 2.742 5.836 8.948 4.355 14.063 5.156 4.978 -1.327 10.702 -1.12 13.242 4.102 11.236 11.719 32.536 -1.598 28.158 -16.908 -1.842 -15.272 -26.086 -18.473 -31.556 -4.069zm52.969 5.625c11.287 5.292 25.406 5.564 36.994 0.9 7.57 -1.603 6.262 -9.891 6.131 -15.9 -4.617 4.031 -10.467 5.836 -16.406 6.563 -0.534 0.877 -1.936 0.286 -2.813 0.469 -7.289 0.098 -14.545 -0.089 -21.094 -2.813 -2.836 -0.488 -4.589 -3.112 -7.031 -4.219 0.122 5.405 -1.453 12.094 4.219 15" fill="#eef4f5"/>
  <path d="M315.938 221.719h-11.25c3.211 0.787 8.006 0.769 11.25 0m-78.281 10.781v7.031h13.125c3.108 13.941 25.008 9.548 23.906 -4.219 0.769 -13.88 -21.656 -16.598 -23.906 -2.813zm76.875 -7.031c0.877 -0.183 2.278 0.408 2.813 -0.469 -0.877 0.183 -2.278 -0.408 -2.813 0.469" fill="#1a96c2"/>
  <path d="M264.844 228.75c-9.066 -2.953 -13.42 11.442 -4.533 13.908 8.948 2.953 12.9 -11.02 4.533 -13.908" fill="#eef4f5"/>
  <path d="M375.469 232.5c-0.206 -1.031 0.45 -2.602 -0.469 -3.281 0.206 1.031 -0.45 2.602 0.469 3.281m-226.406 -2.813c-4.303 1.327 -8.714 2.569 -12.656 4.688 3.216 5.728 12.642 3.844 18.75 4.688 6.652 -0.783 13.566 -1.57 19.688 -3.75 -10.294 -0.005 -22.116 2.616 -32.344 -0.938 1.35 -2.569 6.131 -1.898 6.563 -4.688m27.656 19.688c5.597 -1.223 11.808 -4.973 13.594 -10.781 1.139 -7.027 -8.072 -11.063 -12.188 -5.156 4.369 -1.552 10.43 2.48 7.392 7.861 -1.659 3.788 -5.644 5.944 -8.798 8.077" fill="#1a96c2"/>
  <path d="M237.656 239.531v-7.031h-20.625c-5.564 1.2 -14.438 -2.948 -17.344 3.281 2.419 1.467 3.905 4.673 6.563 5.625 1.622 -6.267 6.989 -0.239 9.961 -0.352 2.578 -2.587 5.311 -7.767 9.609 -5.156 2.583 4.434 7.383 3.778 11.836 3.633" fill="#e37d34"/>
  <path d="M289.688 236.25c-1.125 -0.333 -1.833 -1.256 -2.813 -1.875 0.464 4.823 -1.641 10.716 2.813 14.063 11.55 4.927 25.969 5.995 37.861 1.298 7.594 -1.645 6.384 -9.708 6.202 -15.83 -12.108 9.323 -30.773 9.15 -44.063 2.344" fill="#eef4f5"/>
  <path d="M148.125 240.938c-1.641 -0.314 -2.283 1.584 -3.75 1.875 6.23 8.667 19.463 4.448 28.125 2.344 -0.23 -1.406 -2.278 -1.791 -2.813 -3.281 -3.577 1.27 -7.416 1.594 -11.25 1.875 -3.305 -0.455 -9.412 1.191 -10.313 -2.813m22.969 12.656c-1.575 -5.578 -6.905 -1.434 -10.748 -1.842 -4.223 1.359 -8.841 0.019 -12.22 -2.377 -4.786 4.172 4.008 7.369 7.5 7.5 5.527 0.277 10.523 -1.584 15.469 -3.281" fill="#1a96c2"/>
  <path d="M144.844 255.469c-4.303 -1.102 -8.911 0.938 -12.769 2.695 -1.931 4.27 6.553 4.106 9.487 4.805 13.852 0.75 29.587 1.603 41.25 -5.625 -12.881 5.367 -27.806 3.689 -41.686 2.78 -7.139 -1.537 0.863 -3.797 3.717 -4.655" fill="#1a96c2"/>
  <path d="M283.125 267.656c2.006 0.544 2.859 -1.303 3.281 -2.813 0.998 -1.472 4.641 -1.5 5.625 0 -0.07 0.553 0.202 0.966 0.469 1.406 0.492 1.05 1.697 1.008 2.813 0.938 -1.05 -3.352 -2.705 -6.506 -3.75 -9.844 -0.984 -4.317 -5.348 -1.688 -5.194 1.837 -1.177 2.784 -2.667 5.508 -3.244 8.475" fill="#eef4f5"/>
  <path d="M287.813 261.563c0.483 0.67 2.362 0.792 2.813 0 -0.281 -1.317 -0.966 -2.48 -1.406 -3.75 -0.83 0.938 -1.003 2.522 -1.406 3.75" fill="#365596"/>
  <path d="M299.063 258.281h2.813c-0.45 -0.792 -2.33 -0.67 -2.813 0m8.438 0h2.813c-0.45 -0.792 -2.33 -0.67 -2.813 0m16.875 0h2.813c-0.45 -0.792 -2.33 -0.67 -2.813 0" fill="#1a96c2"/>
  <path d="M330.469 264.844c-1.58 3.309 4.636 3.712 5.972 1.284 2.255 -3.122 -2.555 -4.055 -4.059 -5.466 2.02 -0.895 6.52 -1.444 1.373 -2.845 -2.93 -0.534 -5.339 4.233 -1.988 5.259 4.491 1.031 1.903 3.961 -1.298 1.767m-28.594 -6.563h-2.813c-3.647 0.098 -4.294 5.62 -2.227 7.852 1.444 2.428 8.044 2.245 6.445 -1.289 -2.761 2.62 -6.933 -0.877 -4.57 -4.102 1.481 -1.725 7.641 0.488 3.164 -2.461" fill="#eef4f5"/>
  <path d="M310.313 258.281h-2.813c-8.391 1.584 0.82 15.07 4.219 7.031 -2.522 1.111 -6.258 0.37 -5.142 -3.267 0.319 -3.375 3.745 -1.477 5.611 -2.358 -0.295 -0.684 -1.045 -1.505 -1.875 -1.406m2.813 3.281v2.813c0.872 3.539 5.466 4.12 7.969 1.875 -0.619 -3.056 -5.737 1.772 -6.094 -2.813h6.563c1.308 -5.381 -7.786 -7.397 -8.438 -1.875" fill="#eef4f5"/>
  <path d="M327.188 258.281h-2.813c-4.027 0.909 -0.938 6.469 2.344 5.625 0.417 2.606 -2.484 1.739 -3.75 0.938 -1.134 6.487 11.348 0.15 3.853 -2.916 -3.717 -0.933 -0.469 -3.169 1.772 -1.772 0.192 -0.905 -0.333 -2.058 -1.406 -1.875" fill="#eef4f5"/>
  <path d="M318.75 261.563c0.009 -2.241 -3.178 -2.4 -3.75 -0.469 0.797 1.027 2.569 0.206 3.75 0.469" fill="#365596"/>
  <path d="M186.094 260.625c-14.344 5.559 -31.031 6.014 -46.406 3.75 6.342 4.477 16.8 3.455 24.844 2.813 7.341 -0.881 16.477 -1.223 21.563 -6.563m104.531 0.938c-0.45 0.792 -2.33 0.67 -2.813 0 -1.72 1.425 4.509 1.402 2.813 0m22.5 2.813v-2.813c-0.792 0.45 -0.67 2.33 0 2.813m-26.719 0.469c1.65 -0.727 3.97 -0.75 5.625 0 -0.984 -1.5 -4.627 -1.472 -5.625 0m8.906 2.344c-1.116 0.07 -2.32 0.112 -2.813 -0.938 -0.267 1.519 2.161 1.898 2.813 0.938m7.969 38.438c-0.947 -1.041 -2.888 -0.192 -4.219 -0.469 0.947 1.041 2.888 0.192 4.219 0.469" fill="#1a96c2"/>
</svg>
