<svg viewBox="200.704 344.064 614.4 323.584" xmlns="http://www.w3.org/2000/svg" style="max-height: 500px" width="614.4" height="323.584">
  <g stroke-width="0.3" stroke-opacity="1.00" stroke="#EEF4F5" fill-opacity="0.0" fill="None">
    <path d="M 0.00 1024.00
L 1024.00 1024.00
L 1024.00 0.00
L 0.00 0.00
L 0.00 1024.00
M 506.00 476.00
C 514.22 431.48 545.42 389.41 587.23 369.23 C 633.28 345.98 692.67 350.02 735.00 379.00
C 772.26 404.10 796.83 445.14 800.00 489.00
C 801.96 490.45 800.56 493.80 801.00 496.00
C 807.93 580.33 730.71 656.91 647.00 652.00
C 644.16 651.41 640.02 653.22 638.00 651.00
C 604.90 647.70 572.27 634.09 549.00 609.00
C 525.24 588.48 512.81 558.75 506.00 530.00
C 492.50 631.94 359.12 689.57 276.25 627.75 C 190.10 573.91 189.15 433.73 275.75 379.75 C 358.14 317.82 492.21 373.70 506.00 476.00 Z"/>
  </g>
  <g stroke-width="0.3" stroke-opacity="1.00" stroke="#E37D34" fill-opacity="0.0" fill="None">
    <path d="M 506.00 530.00
C 505.41 527.09 507.59 524.94 507.00 522.00
C 496.09 520.29 482.85 523.45 477.00 511.00
C 469.08 522.44 455.50 521.96 442.00 521.00 C 428.79 524.18 423.39 509.01 414.00 503.00
C 421.97 489.98 436.02 482.40 452.00 486.00 C 470.33 486.00 488.67 486.00 507.00 486.00
C 507.71 482.39 505.77 479.51 506.00 476.00
C 492.21 373.70 358.14 317.82 275.75 379.75 C 189.15 433.73 190.10 573.91 276.25 627.75 C 359.12 689.57 492.50 631.94 506.00 530.00
M 358.00 403.00
C 364.38 421.55 351.44 436.16 339.08 448.08 C 323.64 462.42 335.23 481.18 342.00 496.00
C 327.93 485.30 312.92 463.87 328.25 448.25 C 341.41 435.04 358.12 422.31 358.00 403.00
M 370.00 438.00
C 362.21 446.18 349.47 453.70 352.00 467.00 C 357.06 477.23 362.84 492.10 349.00 499.00
C 354.43 485.27 335.52 474.50 343.77 460.77 C 348.47 449.95 359.52 442.12 370.00 438.00
M 318.00 490.00
C 317.08 495.95 306.88 494.52 304.00 500.00
C 325.82 507.58 351.04 501.99 373.00 502.00
C 359.94 506.65 345.19 508.33 331.00 510.00 C 317.97 508.20 297.86 512.22 291.00 500.00
C 299.41 495.48 308.82 492.83 318.00 490.00
M 377.00 532.00
C 383.73 527.45 392.23 522.85 395.77 514.77 C 402.25 503.29 389.32 494.69 380.00 498.00
C 388.78 485.40 408.43 494.01 406.00 509.00 C 402.19 521.39 388.94 529.39 377.00 532.00
M 316.00 514.00
C 317.92 522.54 330.95 519.03 338.00 520.00 C 346.18 519.40 354.37 518.71 362.00 516.00
C 363.14 519.18 367.51 520.00 368.00 523.00
C 349.52 527.49 321.29 536.49 308.00 518.00
C 311.13 517.38 312.50 513.33 316.00 514.00
M 365.00 541.00
C 354.45 544.62 343.79 548.59 332.00 548.00 C 324.55 547.72 305.79 540.90 316.00 532.00
C 323.21 537.11 333.06 539.97 342.07 537.07 C 350.27 537.94 361.64 529.10 365.00 541.00
M 309.00 545.00
C 302.91 546.83 285.84 551.65 301.07 554.93 C 330.68 556.87 362.52 560.45 390.00 549.00
C 365.12 564.42 331.55 562.60 302.00 561.00 C 295.74 559.51 277.64 559.86 281.76 550.75 C 289.99 547.00 299.82 542.65 309.00 545.00
M 397.00 556.00
C 386.15 567.39 366.66 568.12 351.00 570.00 C 333.84 571.37 311.53 573.55 298.00 564.00
C 330.80 568.83 366.40 567.86 397.00 556.00 Z"/>
  </g>
  <g stroke-width="0.3" stroke-opacity="1.00" stroke="#1A96C2" fill-opacity="0.0" fill="None">
    <path d="M 506.00 476.00
C 505.77 479.51 507.71 482.39 507.00 486.00
C 514.00 486.00 521.00 486.00 528.00 486.00
C 539.67 455.27 591.39 462.10 595.32 494.68 C 604.66 527.34 559.22 555.75 535.25 530.75 C 529.83 519.61 517.62 519.17 507.00 522.00
C 507.59 524.94 505.41 527.09 506.00 530.00
C 512.81 558.75 525.24 588.48 549.00 609.00
C 551.38 607.55 554.64 610.90 556.00 613.00
C 557.79 611.71 556.54 608.01 559.00 607.00
C 560.92 609.02 562.85 608.83 561.00 606.00
C 564.58 604.30 564.91 605.82 567.00 607.00
C 568.83 601.58 577.02 598.64 582.00 600.00
C 583.04 597.91 585.78 596.77 585.00 594.00
C 587.00 600.17 587.28 590.86 592.00 593.00
C 589.58 588.76 593.29 591.54 595.00 593.00
C 592.75 587.31 593.95 587.90 596.00 583.00
C 599.39 587.14 598.53 580.26 603.00 582.00
C 602.24 578.89 605.70 575.64 600.00 575.00
C 601.04 573.58 604.64 573.95 604.00 571.00
C 605.23 564.67 608.41 558.86 610.92 552.92 C 610.59 545.40 619.90 539.79 622.00 549.00
C 622.44 547.71 623.59 546.79 625.00 547.00
C 625.31 540.23 619.39 534.98 618.00 530.00
C 608.50 522.86 612.99 510.29 612.00 500.00
C 614.09 501.32 615.60 503.29 618.00 504.00
C 615.98 501.80 615.71 495.23 620.00 498.00
C 607.90 491.80 611.26 477.53 611.00 466.00
C 616.21 468.36 619.95 473.96 626.00 475.00
C 627.75 472.44 622.00 468.20 626.00 468.00
C 619.36 464.46 605.47 456.72 613.77 447.77 C 630.16 431.83 654.92 434.13 677.00 434.00
C 677.74 432.27 679.42 430.76 678.00 429.00
C 681.10 430.12 684.92 426.82 683.00 424.00
C 686.38 425.22 686.27 422.11 688.00 426.00
C 688.38 419.85 692.16 424.00 692.00 417.00
C 692.68 422.71 701.09 417.46 696.00 414.00
C 700.62 416.33 704.04 410.11 707.96 406.96 C 711.91 403.05 716.82 393.69 721.00 400.00
C 721.60 395.94 726.86 394.48 724.00 390.00
C 727.53 387.47 730.64 387.19 735.00 385.00
C 732.84 382.53 730.80 381.51 735.00 381.00
C 734.02 380.05 732.19 378.97 735.00 379.00
C 692.67 350.02 633.28 345.98 587.23 369.23 C 545.42 389.41 514.22 431.48 506.00 476.00 Z"/>
  </g>
  <g stroke-width="0.3" stroke-opacity="1.00" stroke="#365596" fill-opacity="0.0" fill="None">
    <path d="M 677.00 434.00
C 689.37 437.23 710.44 438.74 712.00 455.00 C 707.24 469.95 687.18 470.59 674.00 473.00
C 667.08 474.64 656.85 474.68 650.00 473.00
C 641.64 472.77 633.74 470.62 626.00 468.00
C 622.00 468.20 627.75 472.44 626.00 475.00
C 639.97 480.81 655.45 481.21 671.00 481.00
C 672.14 479.13 675.13 480.39 677.00 480.00
C 689.67 478.45 702.15 474.60 712.00 466.00
C 712.28 478.82 715.07 496.50 698.92 499.92 C 674.20 509.87 644.08 509.29 620.00 498.00
C 615.71 495.23 615.98 501.80 618.00 504.00
C 646.35 518.52 686.17 518.89 712.00 499.00
C 712.39 512.06 714.97 529.26 698.77 532.77 C 673.40 542.79 642.64 540.51 618.00 530.00
C 619.39 534.98 625.31 540.23 625.00 547.00
C 623.59 546.79 622.44 547.71 622.00 549.00
C 624.23 556.12 627.76 562.85 630.00 570.00
C 628.61 572.05 623.43 571.24 624.00 568.00
C 623.43 567.06 622.85 566.18 623.00 565.00
C 619.47 563.40 614.52 563.45 611.00 565.00
C 610.10 568.22 608.28 572.16 604.00 571.00
C 604.64 573.95 601.04 573.58 600.00 575.00
C 605.70 575.64 602.24 578.89 603.00 582.00
C 598.53 580.26 599.39 587.14 596.00 583.00
C 593.95 587.90 592.75 587.31 595.00 593.00
C 593.29 591.54 589.58 588.76 592.00 593.00
C 587.28 590.86 587.00 600.17 585.00 594.00
C 585.78 596.77 583.04 597.91 582.00 600.00
C 577.02 598.64 568.83 601.58 567.00 607.00
C 564.91 605.82 564.58 604.30 561.00 606.00
C 562.85 608.83 560.92 609.02 559.00 607.00
C 556.54 608.01 557.79 611.71 556.00 613.00
C 554.64 610.90 551.38 607.55 549.00 609.00
C 572.27 634.09 604.90 647.70 638.00 651.00
C 640.84 651.59 644.98 649.78 647.00 652.00
C 730.71 656.91 807.93 580.33 801.00 496.00
C 799.04 494.55 800.44 491.20 800.00 489.00
C 796.83 445.14 772.26 404.10 735.00 379.00
C 732.19 378.97 734.02 380.05 735.00 381.00
C 730.80 381.51 732.84 382.53 735.00 385.00
C 730.64 387.19 727.53 387.47 724.00 390.00
C 726.86 394.48 721.60 395.94 721.00 400.00
C 716.82 393.69 711.91 403.05 707.96 406.96 C 704.04 410.11 700.62 416.33 696.00 414.00
C 701.09 417.46 692.68 422.71 692.00 417.00
C 692.16 424.00 688.38 419.85 688.00 426.00
C 686.27 422.11 686.38 425.22 683.00 424.00
C 684.92 426.82 681.10 430.12 678.00 429.00
C 679.42 430.76 677.74 432.27 677.00 434.00
M 644.00 551.00
C 653.55 557.29 640.41 552.57 637.25 556.25 C 632.21 563.13 641.11 570.59 647.00 565.00
C 650.41 572.54 636.33 572.93 633.25 567.75 C 628.84 562.99 630.22 551.21 638.00 551.00
C 639.03 549.57 643.04 549.31 644.00 551.00
M 662.00 551.00
C 663.77 550.79 665.37 552.54 666.00 554.00
C 662.02 555.88 654.71 551.83 654.03 559.03 C 651.65 566.79 659.62 568.37 665.00 566.00
C 657.75 583.15 638.10 554.38 656.00 551.00
C 657.03 549.57 661.04 549.31 662.00 551.00
M 698.00 551.00
C 700.29 550.61 701.41 553.07 701.00 555.00
C 696.22 552.02 689.29 556.79 697.22 558.78 C 713.21 565.32 686.58 578.84 689.00 565.00
C 691.70 566.71 697.89 568.56 697.00 563.00
C 690.00 564.80 683.41 552.94 692.00 551.00
C 693.03 549.57 697.04 549.31 698.00 551.00
M 705.00 565.00
C 711.83 569.68 717.35 563.43 707.77 561.23 C 700.62 559.04 705.76 548.87 712.01 550.01 C 722.99 553.00 713.39 554.17 709.08 556.08 C 712.29 559.09 722.55 561.08 717.74 567.74 C 714.89 572.92 701.63 572.06 705.00 565.00
M 668.00 564.00
C 666.57 562.97 666.31 558.96 668.00 558.00
C 669.39 546.22 688.79 550.52 686.00 562.00
C 681.33 562.00 676.67 562.00 672.00 562.00
C 672.76 571.78 683.68 561.48 685.00 568.00
C 679.66 572.79 669.86 571.55 668.00 564.00 Z"/>
  </g>
  <g stroke-width="0.3" stroke-opacity="1.00" stroke="#EEF4F5" fill-opacity="0.0" fill="None">
    <path d="M 358.00 403.00
C 358.12 422.31 341.41 435.04 328.25 448.25 C 312.92 463.87 327.93 485.30 342.00 496.00
C 335.23 481.18 323.64 462.42 339.08 448.08 C 351.44 436.16 364.38 421.55 358.00 403.00 Z"/>
  </g>
  <g stroke-width="0.3" stroke-opacity="1.00" stroke="#EEF4F5" fill-opacity="0.0" fill="None">
    <path d="M 626.00 468.00
C 633.74 470.62 641.64 472.77 650.00 473.00
C 658.00 473.00 666.00 473.00 674.00 473.00
C 687.18 470.59 707.24 469.95 712.00 455.00 C 710.44 438.74 689.37 437.23 677.00 434.00
C 654.92 434.13 630.16 431.83 613.77 447.77 C 605.47 456.72 619.36 464.46 626.00 468.00 Z"/>
  </g>
  <g stroke-width="0.3" stroke-opacity="1.00" stroke="#EEF4F5" fill-opacity="0.0" fill="None">
    <path d="M 370.00 438.00
C 359.52 442.12 348.47 449.95 343.77 460.77 C 335.52 474.50 354.43 485.27 349.00 499.00
C 362.84 492.10 357.06 477.23 352.00 467.00 C 349.47 453.70 362.21 446.18 370.00 438.00 Z"/>
  </g>
  <g stroke-width="0.3" stroke-opacity="1.00" stroke="#EEF4F5" fill-opacity="0.0" fill="None">
    <path d="M 507.00 486.00
C 488.67 486.00 470.33 486.00 452.00 486.00 C 436.02 482.40 421.97 489.98 414.00 503.00
C 423.39 509.01 428.79 524.18 442.00 521.00 C 455.50 521.96 469.08 522.44 477.00 511.00
C 482.85 523.45 496.09 520.29 507.00 522.00
C 517.62 519.17 529.83 519.61 535.25 530.75 C 559.22 555.75 604.66 527.34 595.32 494.68 C 591.39 462.10 539.67 455.27 528.00 486.00
C 521.00 486.00 514.00 486.00 507.00 486.00
M 507.00 511.00
C 497.50 511.31 487.26 512.71 481.75 503.25 C 472.58 497.68 466.75 508.73 461.25 514.25 C 454.91 514.49 443.46 501.63 440.00 515.00
C 434.33 512.97 431.16 506.13 426.00 503.00
C 432.20 489.71 451.13 498.56 463.00 496.00 C 477.67 496.00 492.33 496.00 507.00 496.00
C 516.33 496.00 525.67 496.00 535.00 496.00
C 539.80 466.59 587.64 472.39 586.00 502.00 C 588.35 531.37 541.63 540.74 535.00 511.00
C 525.67 511.00 516.33 511.00 507.00 511.00 Z"/>
  </g>
  <g stroke-width="0.3" stroke-opacity="1.00" stroke="#EEF4F5" fill-opacity="0.0" fill="None">
    <path d="M 620.00 498.00
C 644.08 509.29 674.20 509.87 698.92 499.92 C 715.07 496.50 712.28 478.82 712.00 466.00
C 702.15 474.60 689.67 478.45 677.00 480.00
C 675.86 481.87 672.87 480.61 671.00 481.00
C 655.45 481.21 639.97 480.81 626.00 475.00
C 619.95 473.96 616.21 468.36 611.00 466.00
C 611.26 477.53 607.90 491.80 620.00 498.00 Z"/>
  </g>
  <g stroke-width="0.3" stroke-opacity="1.00" stroke="#1A96C2" fill-opacity="0.0" fill="None">
    <path d="M 674.00 473.00
C 666.00 473.00 658.00 473.00 650.00 473.00
C 656.85 474.68 667.08 474.64 674.00 473.00 Z"/>
  </g>
  <g stroke-width="0.3" stroke-opacity="1.00" stroke="#1A96C2" fill-opacity="0.0" fill="None">
    <path d="M 507.00 496.00
C 507.00 501.00 507.00 506.00 507.00 511.00
C 516.33 511.00 525.67 511.00 535.00 511.00
C 541.63 540.74 588.35 531.37 586.00 502.00 C 587.64 472.39 539.80 466.59 535.00 496.00
C 525.67 496.00 516.33 496.00 507.00 496.00
M 565.00 488.00
C 582.85 494.16 574.42 523.97 555.33 517.67 C 536.37 512.41 545.66 481.70 565.00 488.00 Z"/>
  </g>
  <g stroke-width="0.3" stroke-opacity="1.00" stroke="#1A96C2" fill-opacity="0.0" fill="None">
    <path d="M 671.00 481.00
C 672.87 480.61 675.86 481.87 677.00 480.00
C 675.13 480.39 672.14 479.13 671.00 481.00 Z"/>
  </g>
  <g stroke-width="0.3" stroke-opacity="1.00" stroke="#EEF4F5" fill-opacity="0.0" fill="None">
    <path d="M 565.00 488.00
C 545.66 481.70 536.37 512.41 555.33 517.67 C 574.42 523.97 582.85 494.16 565.00 488.00 Z"/>
  </g>
  <g stroke-width="0.3" stroke-opacity="1.00" stroke="#1A96C2" fill-opacity="0.0" fill="None">
    <path d="M 801.00 496.00
C 800.56 493.80 801.96 490.45 800.00 489.00
C 800.44 491.20 799.04 494.55 801.00 496.00 Z"/>
  </g>
  <g stroke-width="0.3" stroke-opacity="1.00" stroke="#1A96C2" fill-opacity="0.0" fill="None">
    <path d="M 318.00 490.00
C 308.82 492.83 299.41 495.48 291.00 500.00
C 297.86 512.22 317.97 508.20 331.00 510.00 C 345.19 508.33 359.94 506.65 373.00 502.00
C 351.04 501.99 325.82 507.58 304.00 500.00
C 306.88 494.52 317.08 495.95 318.00 490.00 Z"/>
  </g>
  <g stroke-width="0.3" stroke-opacity="1.00" stroke="#1A96C2" fill-opacity="0.0" fill="None">
    <path d="M 377.00 532.00
C 388.94 529.39 402.19 521.39 406.00 509.00 C 408.43 494.01 388.78 485.40 380.00 498.00
C 389.32 494.69 402.25 503.29 395.77 514.77 C 392.23 522.85 383.73 527.45 377.00 532.00 Z"/>
  </g>
  <g stroke-width="0.3" stroke-opacity="1.00" stroke="#E37D34" fill-opacity="0.0" fill="None">
    <path d="M 507.00 511.00
C 507.00 506.00 507.00 501.00 507.00 496.00
C 492.33 496.00 477.67 496.00 463.00 496.00 C 451.13 498.56 432.20 489.71 426.00 503.00
C 431.16 506.13 434.33 512.97 440.00 515.00
C 443.46 501.63 454.91 514.49 461.25 514.25 C 466.75 508.73 472.58 497.68 481.75 503.25 C 487.26 512.71 497.50 511.31 507.00 511.00 Z"/>
  </g>
  <g stroke-width="0.3" stroke-opacity="1.00" stroke="#EEF4F5" fill-opacity="0.0" fill="None">
    <path d="M 618.00 504.00
C 615.60 503.29 614.09 501.32 612.00 500.00
C 612.99 510.29 608.50 522.86 618.00 530.00
C 642.64 540.51 673.40 542.79 698.77 532.77 C 714.97 529.26 712.39 512.06 712.00 499.00
C 686.17 518.89 646.35 518.52 618.00 504.00 Z"/>
  </g>
  <g stroke-width="0.3" stroke-opacity="1.00" stroke="#1A96C2" fill-opacity="0.0" fill="None">
    <path d="M 316.00 514.00
C 312.50 513.33 311.13 517.38 308.00 518.00
C 321.29 536.49 349.52 527.49 368.00 523.00
C 367.51 520.00 363.14 519.18 362.00 516.00
C 354.37 518.71 346.18 519.40 338.00 520.00 C 330.95 519.03 317.92 522.54 316.00 514.00 Z"/>
  </g>
  <g stroke-width="0.3" stroke-opacity="1.00" stroke="#1A96C2" fill-opacity="0.0" fill="None">
    <path d="M 365.00 541.00
C 361.64 529.10 350.27 537.94 342.07 537.07 C 333.06 539.97 323.21 537.11 316.00 532.00
C 305.79 540.90 324.55 547.72 332.00 548.00 C 343.79 548.59 354.45 544.62 365.00 541.00 Z"/>
  </g>
  <g stroke-width="0.3" stroke-opacity="1.00" stroke="#1A96C2" fill-opacity="0.0" fill="None">
    <path d="M 309.00 545.00
C 299.82 542.65 289.99 547.00 281.76 550.75 C 277.64 559.86 295.74 559.51 302.00 561.00 C 331.55 562.60 365.12 564.42 390.00 549.00
C 362.52 560.45 330.68 556.87 301.07 554.93 C 285.84 551.65 302.91 546.83 309.00 545.00 Z"/>
  </g>
  <g stroke-width="0.3" stroke-opacity="1.00" stroke="#EEF4F5" fill-opacity="0.0" fill="None">
    <path d="M 604.00 571.00
C 608.28 572.16 610.10 568.22 611.00 565.00
C 613.13 561.86 620.90 561.80 623.00 565.00
C 622.85 566.18 623.43 567.06 624.00 568.00
C 625.05 570.24 627.62 570.15 630.00 570.00
C 627.76 562.85 624.23 556.12 622.00 549.00
C 619.90 539.79 610.59 545.40 610.92 552.92 C 608.41 558.86 605.23 564.67 604.00 571.00
M 620.00 558.00
C 623.62 560.99 610.33 561.04 614.00 558.00
C 614.86 555.38 615.23 552.00 617.00 550.00
C 617.94 552.71 619.40 555.19 620.00 558.00 Z"/>
  </g>
  <g stroke-width="0.3" stroke-opacity="1.00" stroke="#365596" fill-opacity="0.0" fill="None">
    <path d="M 614.00 558.00
C 615.03 559.43 619.04 559.69 620.00 558.00
C 619.40 555.19 617.94 552.71 617.00 550.00
C 615.23 552.00 614.86 555.38 614.00 558.00 Z"/>
  </g>
  <g stroke-width="0.3" stroke-opacity="1.00" stroke="#1A96C2" fill-opacity="0.0" fill="None">
    <path d="M 638.00 551.00
C 640.00 551.00 642.00 551.00 644.00 551.00
C 643.04 549.31 639.03 549.57 638.00 551.00 Z"/>
  </g>
  <g stroke-width="0.3" stroke-opacity="1.00" stroke="#1A96C2" fill-opacity="0.0" fill="None">
    <path d="M 656.00 551.00
C 658.00 551.00 660.00 551.00 662.00 551.00
C 661.04 549.31 657.03 549.57 656.00 551.00 Z"/>
  </g>
  <g stroke-width="0.3" stroke-opacity="1.00" stroke="#1A96C2" fill-opacity="0.0" fill="None">
    <path d="M 692.00 551.00
C 694.00 551.00 696.00 551.00 698.00 551.00
C 697.04 549.31 693.03 549.57 692.00 551.00 Z"/>
  </g>
  <g stroke-width="0.3" stroke-opacity="1.00" stroke="#EEF4F5" fill-opacity="0.0" fill="None">
    <path d="M 705.00 565.00
C 701.63 572.06 714.89 572.92 717.74 567.74 C 722.55 561.08 712.29 559.09 709.08 556.08 C 713.39 554.17 722.99 553.00 712.01 550.01 C 705.76 548.87 700.62 559.04 707.77 561.23 C 717.35 563.43 711.83 569.68 705.00 565.00 Z"/>
  </g>
  <g stroke-width="0.3" stroke-opacity="1.00" stroke="#EEF4F5" fill-opacity="0.0" fill="None">
    <path d="M 644.00 551.00
C 642.00 551.00 640.00 551.00 638.00 551.00
C 630.22 551.21 628.84 562.99 633.25 567.75 C 636.33 572.93 650.41 572.54 647.00 565.00
C 641.11 570.59 632.21 563.13 637.25 556.25 C 640.41 552.57 653.55 557.29 644.00 551.00 Z"/>
  </g>
  <g stroke-width="0.3" stroke-opacity="1.00" stroke="#EEF4F5" fill-opacity="0.0" fill="None">
    <path d="M 662.00 551.00
C 660.00 551.00 658.00 551.00 656.00 551.00
C 638.10 554.38 657.75 583.15 665.00 566.00
C 659.62 568.37 651.65 566.79 654.03 559.03 C 654.71 551.83 662.02 555.88 666.00 554.00
C 665.37 552.54 663.77 550.79 662.00 551.00 Z"/>
  </g>
  <g stroke-width="0.3" stroke-opacity="1.00" stroke="#EEF4F5" fill-opacity="0.0" fill="None">
    <path d="M 668.00 558.00
C 668.00 560.00 668.00 562.00 668.00 564.00
C 669.86 571.55 679.66 572.79 685.00 568.00
C 683.68 561.48 672.76 571.78 672.00 562.00
C 676.67 562.00 681.33 562.00 686.00 562.00
C 688.79 550.52 669.39 546.22 668.00 558.00
M 680.00 558.00
C 677.48 557.44 673.70 559.19 672.00 557.00
C 673.22 552.88 680.02 553.22 680.00 558.00 Z"/>
  </g>
  <g stroke-width="0.3" stroke-opacity="1.00" stroke="#EEF4F5" fill-opacity="0.0" fill="None">
    <path d="M 698.00 551.00
C 696.00 551.00 694.00 551.00 692.00 551.00
C 683.41 552.94 690.00 564.80 697.00 563.00
C 697.89 568.56 691.70 566.71 689.00 565.00
C 686.58 578.84 713.21 565.32 697.22 558.78 C 689.29 556.79 696.22 552.02 701.00 555.00
C 701.41 553.07 700.29 550.61 698.00 551.00 Z"/>
  </g>
  <g stroke-width="0.3" stroke-opacity="1.00" stroke="#365596" fill-opacity="0.0" fill="None">
    <path d="M 680.00 558.00
C 680.02 553.22 673.22 552.88 672.00 557.00
C 673.70 559.19 677.48 557.44 680.00 558.00 Z"/>
  </g>
  <g stroke-width="0.3" stroke-opacity="1.00" stroke="#1A96C2" fill-opacity="0.0" fill="None">
    <path d="M 397.00 556.00
C 366.40 567.86 330.80 568.83 298.00 564.00
C 311.53 573.55 333.84 571.37 351.00 570.00 C 366.66 568.12 386.15 567.39 397.00 556.00 Z"/>
  </g>
  <g stroke-width="0.3" stroke-opacity="1.00" stroke="#1A96C2" fill-opacity="0.0" fill="None">
    <path d="M 620.00 558.00
C 619.04 559.69 615.03 559.43 614.00 558.00
C 610.33 561.04 623.62 560.99 620.00 558.00 Z"/>
  </g>
  <g stroke-width="0.3" stroke-opacity="1.00" stroke="#1A96C2" fill-opacity="0.0" fill="None">
    <path d="M 668.00 564.00
C 668.00 562.00 668.00 560.00 668.00 558.00
C 666.31 558.96 666.57 562.97 668.00 564.00 Z"/>
  </g>
  <g stroke-width="0.3" stroke-opacity="1.00" stroke="#1A96C2" fill-opacity="0.0" fill="None">
    <path d="M 611.00 565.00
C 614.52 563.45 619.47 563.40 623.00 565.00
C 620.90 561.80 613.13 561.86 611.00 565.00 Z"/>
  </g>
  <g stroke-width="0.3" stroke-opacity="1.00" stroke="#1A96C2" fill-opacity="0.0" fill="None">
    <path d="M 630.00 570.00
C 627.62 570.15 625.05 570.24 624.00 568.00
C 623.43 571.24 628.61 572.05 630.00 570.00 Z"/>
  </g>
  <g stroke-width="0.3" stroke-opacity="1.00" stroke="#1A96C2" fill-opacity="0.0" fill="None">
    <path d="M 647.00 652.00
C 644.98 649.78 640.84 651.59 638.00 651.00
C 640.02 653.22 644.16 651.41 647.00 652.00 Z"/>
  </g>
  <g stroke="None" fill-opacity="1.00" fill="#E37D34">
    <path d="M 506.00 530.00
C 505.41 527.09 507.59 524.94 507.00 522.00
C 496.09 520.29 482.85 523.45 477.00 511.00
C 469.08 522.44 455.50 521.96 442.00 521.00 C 428.79 524.18 423.39 509.01 414.00 503.00
C 421.97 489.98 436.02 482.40 452.00 486.00 C 470.33 486.00 488.67 486.00 507.00 486.00
C 507.71 482.39 505.77 479.51 506.00 476.00
C 492.21 373.70 358.14 317.82 275.75 379.75 C 189.15 433.73 190.10 573.91 276.25 627.75 C 359.12 689.57 492.50 631.94 506.00 530.00 Z"/>
  </g>
  <g stroke="None" fill-opacity="1.00" fill="#1A96C2">
    <path d="M 506.00 476.00
C 505.77 479.51 507.71 482.39 507.00 486.00
C 514.00 486.00 521.00 486.00 528.00 486.00
C 539.67 455.27 591.39 462.10 595.32 494.68 C 604.66 527.34 559.22 555.75 535.25 530.75 C 529.83 519.61 517.62 519.17 507.00 522.00
C 507.59 524.94 505.41 527.09 506.00 530.00
C 512.81 558.75 525.24 588.48 549.00 609.00
C 551.38 607.55 554.64 610.90 556.00 613.00
C 557.79 611.71 556.54 608.01 559.00 607.00
C 560.92 609.02 562.85 608.83 561.00 606.00
C 564.58 604.30 564.91 605.82 567.00 607.00
C 568.83 601.58 577.02 598.64 582.00 600.00
C 583.04 597.91 585.78 596.77 585.00 594.00
C 587.00 600.17 587.28 590.86 592.00 593.00
C 589.58 588.76 593.29 591.54 595.00 593.00
C 592.75 587.31 593.95 587.90 596.00 583.00
C 599.39 587.14 598.53 580.26 603.00 582.00
C 602.24 578.89 605.70 575.64 600.00 575.00
C 601.04 573.58 604.64 573.95 604.00 571.00
C 605.23 564.67 608.41 558.86 610.92 552.92 C 610.59 545.40 619.90 539.79 622.00 549.00
C 622.44 547.71 623.59 546.79 625.00 547.00
C 625.31 540.23 619.39 534.98 618.00 530.00
C 608.50 522.86 612.99 510.29 612.00 500.00
C 614.09 501.32 615.60 503.29 618.00 504.00
C 615.98 501.80 615.71 495.23 620.00 498.00
C 607.90 491.80 611.26 477.53 611.00 466.00
C 616.21 468.36 619.95 473.96 626.00 475.00
C 627.75 472.44 622.00 468.20 626.00 468.00
C 619.36 464.46 605.47 456.72 613.77 447.77 C 630.16 431.83 654.92 434.13 677.00 434.00
C 677.74 432.27 679.42 430.76 678.00 429.00
C 681.10 430.12 684.92 426.82 683.00 424.00
C 686.38 425.22 686.27 422.11 688.00 426.00
C 688.38 419.85 692.16 424.00 692.00 417.00
C 692.68 422.71 701.09 417.46 696.00 414.00
C 700.62 416.33 704.04 410.11 707.96 406.96 C 711.91 403.05 716.82 393.69 721.00 400.00
C 721.60 395.94 726.86 394.48 724.00 390.00
C 727.53 387.47 730.64 387.19 735.00 385.00
C 732.84 382.53 730.80 381.51 735.00 381.00
C 734.02 380.05 732.19 378.97 735.00 379.00
C 692.67 350.02 633.28 345.98 587.23 369.23 C 545.42 389.41 514.22 431.48 506.00 476.00 Z"/>
  </g>
  <g stroke="None" fill-opacity="1.00" fill="#365596">
    <path d="M 677.00 434.00
C 689.37 437.23 710.44 438.74 712.00 455.00 C 707.24 469.95 687.18 470.59 674.00 473.00
C 667.08 474.64 656.85 474.68 650.00 473.00
C 641.64 472.77 633.74 470.62 626.00 468.00
C 622.00 468.20 627.75 472.44 626.00 475.00
C 639.97 480.81 655.45 481.21 671.00 481.00
C 672.14 479.13 675.13 480.39 677.00 480.00
C 689.67 478.45 702.15 474.60 712.00 466.00
C 712.28 478.82 715.07 496.50 698.92 499.92 C 674.20 509.87 644.08 509.29 620.00 498.00
C 615.71 495.23 615.98 501.80 618.00 504.00
C 646.35 518.52 686.17 518.89 712.00 499.00
C 712.39 512.06 714.97 529.26 698.77 532.77 C 673.40 542.79 642.64 540.51 618.00 530.00
C 619.39 534.98 625.31 540.23 625.00 547.00
C 623.59 546.79 622.44 547.71 622.00 549.00
C 624.23 556.12 627.76 562.85 630.00 570.00
C 628.61 572.05 623.43 571.24 624.00 568.00
C 623.43 567.06 622.85 566.18 623.00 565.00
C 619.47 563.40 614.52 563.45 611.00 565.00
C 610.10 568.22 608.28 572.16 604.00 571.00
C 604.64 573.95 601.04 573.58 600.00 575.00
C 605.70 575.64 602.24 578.89 603.00 582.00
C 598.53 580.26 599.39 587.14 596.00 583.00
C 593.95 587.90 592.75 587.31 595.00 593.00
C 593.29 591.54 589.58 588.76 592.00 593.00
C 587.28 590.86 587.00 600.17 585.00 594.00
C 585.78 596.77 583.04 597.91 582.00 600.00
C 577.02 598.64 568.83 601.58 567.00 607.00
C 564.91 605.82 564.58 604.30 561.00 606.00
C 562.85 608.83 560.92 609.02 559.00 607.00
C 556.54 608.01 557.79 611.71 556.00 613.00
C 554.64 610.90 551.38 607.55 549.00 609.00
C 572.27 634.09 604.90 647.70 638.00 651.00
C 640.84 651.59 644.98 649.78 647.00 652.00
C 730.71 656.91 807.93 580.33 801.00 496.00
C 799.04 494.55 800.44 491.20 800.00 489.00
C 796.83 445.14 772.26 404.10 735.00 379.00
C 732.19 378.97 734.02 380.05 735.00 381.00
C 730.80 381.51 732.84 382.53 735.00 385.00
C 730.64 387.19 727.53 387.47 724.00 390.00
C 726.86 394.48 721.60 395.94 721.00 400.00
C 716.82 393.69 711.91 403.05 707.96 406.96 C 704.04 410.11 700.62 416.33 696.00 414.00
C 701.09 417.46 692.68 422.71 692.00 417.00
C 692.16 424.00 688.38 419.85 688.00 426.00
C 686.27 422.11 686.38 425.22 683.00 424.00
C 684.92 426.82 681.10 430.12 678.00 429.00
C 679.42 430.76 677.74 432.27 677.00 434.00 Z"/>
  </g>
  <g stroke="None" fill-opacity="1.00" fill="#EEF4F5">
    <path d="M 358.00 403.00
C 358.12 422.31 341.41 435.04 328.25 448.25 C 312.92 463.87 327.93 485.30 342.00 496.00
C 335.23 481.18 323.64 462.42 339.08 448.08 C 351.44 436.16 364.38 421.55 358.00 403.00 Z"/>
  </g>
  <g stroke="None" fill-opacity="1.00" fill="#EEF4F5">
    <path d="M 626.00 468.00
C 633.74 470.62 641.64 472.77 650.00 473.00
C 658.00 473.00 666.00 473.00 674.00 473.00
C 687.18 470.59 707.24 469.95 712.00 455.00 C 710.44 438.74 689.37 437.23 677.00 434.00
C 654.92 434.13 630.16 431.83 613.77 447.77 C 605.47 456.72 619.36 464.46 626.00 468.00 Z"/>
  </g>
  <g stroke="None" fill-opacity="1.00" fill="#EEF4F5">
    <path d="M 370.00 438.00
C 359.52 442.12 348.47 449.95 343.77 460.77 C 335.52 474.50 354.43 485.27 349.00 499.00
C 362.84 492.10 357.06 477.23 352.00 467.00 C 349.47 453.70 362.21 446.18 370.00 438.00 Z"/>
  </g>
  <g stroke="None" fill-opacity="1.00" fill="#EEF4F5">
    <path d="M 507.00 486.00
C 488.67 486.00 470.33 486.00 452.00 486.00 C 436.02 482.40 421.97 489.98 414.00 503.00
C 423.39 509.01 428.79 524.18 442.00 521.00 C 455.50 521.96 469.08 522.44 477.00 511.00
C 482.85 523.45 496.09 520.29 507.00 522.00
C 517.62 519.17 529.83 519.61 535.25 530.75 C 559.22 555.75 604.66 527.34 595.32 494.68 C 591.39 462.10 539.67 455.27 528.00 486.00
C 521.00 486.00 514.00 486.00 507.00 486.00 Z"/>
  </g>
  <g stroke="None" fill-opacity="1.00" fill="#EEF4F5">
    <path d="M 620.00 498.00
C 644.08 509.29 674.20 509.87 698.92 499.92 C 715.07 496.50 712.28 478.82 712.00 466.00
C 702.15 474.60 689.67 478.45 677.00 480.00
C 675.86 481.87 672.87 480.61 671.00 481.00
C 655.45 481.21 639.97 480.81 626.00 475.00
C 619.95 473.96 616.21 468.36 611.00 466.00
C 611.26 477.53 607.90 491.80 620.00 498.00 Z"/>
  </g>
  <g stroke="None" fill-opacity="1.00" fill="#1A96C2">
    <path d="M 674.00 473.00
C 666.00 473.00 658.00 473.00 650.00 473.00
C 656.85 474.68 667.08 474.64 674.00 473.00 Z"/>
  </g>
  <g stroke="None" fill-opacity="1.00" fill="#1A96C2">
    <path d="M 507.00 496.00
C 507.00 501.00 507.00 506.00 507.00 511.00
C 516.33 511.00 525.67 511.00 535.00 511.00
C 541.63 540.74 588.35 531.37 586.00 502.00 C 587.64 472.39 539.80 466.59 535.00 496.00
C 525.67 496.00 516.33 496.00 507.00 496.00 Z"/>
  </g>
  <g stroke="None" fill-opacity="1.00" fill="#1A96C2">
    <path d="M 671.00 481.00
C 672.87 480.61 675.86 481.87 677.00 480.00
C 675.13 480.39 672.14 479.13 671.00 481.00 Z"/>
  </g>
  <g stroke="None" fill-opacity="1.00" fill="#EEF4F5">
    <path d="M 565.00 488.00
C 545.66 481.70 536.37 512.41 555.33 517.67 C 574.42 523.97 582.85 494.16 565.00 488.00 Z"/>
  </g>
  <g stroke="None" fill-opacity="1.00" fill="#1A96C2">
    <path d="M 801.00 496.00
C 800.56 493.80 801.96 490.45 800.00 489.00
C 800.44 491.20 799.04 494.55 801.00 496.00 Z"/>
  </g>
  <g stroke="None" fill-opacity="1.00" fill="#1A96C2">
    <path d="M 318.00 490.00
C 308.82 492.83 299.41 495.48 291.00 500.00
C 297.86 512.22 317.97 508.20 331.00 510.00 C 345.19 508.33 359.94 506.65 373.00 502.00
C 351.04 501.99 325.82 507.58 304.00 500.00
C 306.88 494.52 317.08 495.95 318.00 490.00 Z"/>
  </g>
  <g stroke="None" fill-opacity="1.00" fill="#1A96C2">
    <path d="M 377.00 532.00
C 388.94 529.39 402.19 521.39 406.00 509.00 C 408.43 494.01 388.78 485.40 380.00 498.00
C 389.32 494.69 402.25 503.29 395.77 514.77 C 392.23 522.85 383.73 527.45 377.00 532.00 Z"/>
  </g>
  <g stroke="None" fill-opacity="1.00" fill="#E37D34">
    <path d="M 507.00 511.00
C 507.00 506.00 507.00 501.00 507.00 496.00
C 492.33 496.00 477.67 496.00 463.00 496.00 C 451.13 498.56 432.20 489.71 426.00 503.00
C 431.16 506.13 434.33 512.97 440.00 515.00
C 443.46 501.63 454.91 514.49 461.25 514.25 C 466.75 508.73 472.58 497.68 481.75 503.25 C 487.26 512.71 497.50 511.31 507.00 511.00 Z"/>
  </g>
  <g stroke="None" fill-opacity="1.00" fill="#EEF4F5">
    <path d="M 618.00 504.00
C 615.60 503.29 614.09 501.32 612.00 500.00
C 612.99 510.29 608.50 522.86 618.00 530.00
C 642.64 540.51 673.40 542.79 698.77 532.77 C 714.97 529.26 712.39 512.06 712.00 499.00
C 686.17 518.89 646.35 518.52 618.00 504.00 Z"/>
  </g>
  <g stroke="None" fill-opacity="1.00" fill="#1A96C2">
    <path d="M 316.00 514.00
C 312.50 513.33 311.13 517.38 308.00 518.00
C 321.29 536.49 349.52 527.49 368.00 523.00
C 367.51 520.00 363.14 519.18 362.00 516.00
C 354.37 518.71 346.18 519.40 338.00 520.00 C 330.95 519.03 317.92 522.54 316.00 514.00 Z"/>
  </g>
  <g stroke="None" fill-opacity="1.00" fill="#1A96C2">
    <path d="M 365.00 541.00
C 361.64 529.10 350.27 537.94 342.07 537.07 C 333.06 539.97 323.21 537.11 316.00 532.00
C 305.79 540.90 324.55 547.72 332.00 548.00 C 343.79 548.59 354.45 544.62 365.00 541.00 Z"/>
  </g>
  <g stroke="None" fill-opacity="1.00" fill="#1A96C2">
    <path d="M 309.00 545.00
C 299.82 542.65 289.99 547.00 281.76 550.75 C 277.64 559.86 295.74 559.51 302.00 561.00 C 331.55 562.60 365.12 564.42 390.00 549.00
C 362.52 560.45 330.68 556.87 301.07 554.93 C 285.84 551.65 302.91 546.83 309.00 545.00 Z"/>
  </g>
  <g stroke="None" fill-opacity="1.00" fill="#EEF4F5">
    <path d="M 604.00 571.00
C 608.28 572.16 610.10 568.22 611.00 565.00
C 613.13 561.86 620.90 561.80 623.00 565.00
C 622.85 566.18 623.43 567.06 624.00 568.00
C 625.05 570.24 627.62 570.15 630.00 570.00
C 627.76 562.85 624.23 556.12 622.00 549.00
C 619.90 539.79 610.59 545.40 610.92 552.92 C 608.41 558.86 605.23 564.67 604.00 571.00 Z"/>
  </g>
  <g stroke="None" fill-opacity="1.00" fill="#365596">
    <path d="M 614.00 558.00
C 615.03 559.43 619.04 559.69 620.00 558.00
C 619.40 555.19 617.94 552.71 617.00 550.00
C 615.23 552.00 614.86 555.38 614.00 558.00 Z"/>
  </g>
  <g stroke="None" fill-opacity="1.00" fill="#1A96C2">
    <path d="M 638.00 551.00
C 640.00 551.00 642.00 551.00 644.00 551.00
C 643.04 549.31 639.03 549.57 638.00 551.00 Z"/>
  </g>
  <g stroke="None" fill-opacity="1.00" fill="#1A96C2">
    <path d="M 656.00 551.00
C 658.00 551.00 660.00 551.00 662.00 551.00
C 661.04 549.31 657.03 549.57 656.00 551.00 Z"/>
  </g>
  <g stroke="None" fill-opacity="1.00" fill="#1A96C2">
    <path d="M 692.00 551.00
C 694.00 551.00 696.00 551.00 698.00 551.00
C 697.04 549.31 693.03 549.57 692.00 551.00 Z"/>
  </g>
  <g stroke="None" fill-opacity="1.00" fill="#EEF4F5">
    <path d="M 705.00 565.00
C 701.63 572.06 714.89 572.92 717.74 567.74 C 722.55 561.08 712.29 559.09 709.08 556.08 C 713.39 554.17 722.99 553.00 712.01 550.01 C 705.76 548.87 700.62 559.04 707.77 561.23 C 717.35 563.43 711.83 569.68 705.00 565.00 Z"/>
  </g>
  <g stroke="None" fill-opacity="1.00" fill="#EEF4F5">
    <path d="M 644.00 551.00
C 642.00 551.00 640.00 551.00 638.00 551.00
C 630.22 551.21 628.84 562.99 633.25 567.75 C 636.33 572.93 650.41 572.54 647.00 565.00
C 641.11 570.59 632.21 563.13 637.25 556.25 C 640.41 552.57 653.55 557.29 644.00 551.00 Z"/>
  </g>
  <g stroke="None" fill-opacity="1.00" fill="#EEF4F5">
    <path d="M 662.00 551.00
C 660.00 551.00 658.00 551.00 656.00 551.00
C 638.10 554.38 657.75 583.15 665.00 566.00
C 659.62 568.37 651.65 566.79 654.03 559.03 C 654.71 551.83 662.02 555.88 666.00 554.00
C 665.37 552.54 663.77 550.79 662.00 551.00 Z"/>
  </g>
  <g stroke="None" fill-opacity="1.00" fill="#EEF4F5">
    <path d="M 668.00 558.00
C 668.00 560.00 668.00 562.00 668.00 564.00
C 669.86 571.55 679.66 572.79 685.00 568.00
C 683.68 561.48 672.76 571.78 672.00 562.00
C 676.67 562.00 681.33 562.00 686.00 562.00
C 688.79 550.52 669.39 546.22 668.00 558.00 Z"/>
  </g>
  <g stroke="None" fill-opacity="1.00" fill="#EEF4F5">
    <path d="M 698.00 551.00
C 696.00 551.00 694.00 551.00 692.00 551.00
C 683.41 552.94 690.00 564.80 697.00 563.00
C 697.89 568.56 691.70 566.71 689.00 565.00
C 686.58 578.84 713.21 565.32 697.22 558.78 C 689.29 556.79 696.22 552.02 701.00 555.00
C 701.41 553.07 700.29 550.61 698.00 551.00 Z"/>
  </g>
  <g stroke="None" fill-opacity="1.00" fill="#365596">
    <path d="M 680.00 558.00
C 680.02 553.22 673.22 552.88 672.00 557.00
C 673.70 559.19 677.48 557.44 680.00 558.00 Z"/>
  </g>
  <g stroke="None" fill-opacity="1.00" fill="#1A96C2">
    <path d="M 397.00 556.00
C 366.40 567.86 330.80 568.83 298.00 564.00
C 311.53 573.55 333.84 571.37 351.00 570.00 C 366.66 568.12 386.15 567.39 397.00 556.00 Z"/>
  </g>
  <g stroke="None" fill-opacity="1.00" fill="#1A96C2">
    <path d="M 620.00 558.00
C 619.04 559.69 615.03 559.43 614.00 558.00
C 610.33 561.04 623.62 560.99 620.00 558.00 Z"/>
  </g>
  <g stroke="None" fill-opacity="1.00" fill="#1A96C2">
    <path d="M 668.00 564.00
C 668.00 562.00 668.00 560.00 668.00 558.00
C 666.31 558.96 666.57 562.97 668.00 564.00 Z"/>
  </g>
  <g stroke="None" fill-opacity="1.00" fill="#1A96C2">
    <path d="M 611.00 565.00
C 614.52 563.45 619.47 563.40 623.00 565.00
C 620.90 561.80 613.13 561.86 611.00 565.00 Z"/>
  </g>
  <g stroke="None" fill-opacity="1.00" fill="#1A96C2">
    <path d="M 630.00 570.00
C 627.62 570.15 625.05 570.24 624.00 568.00
C 623.43 571.24 628.61 572.05 630.00 570.00 Z"/>
  </g>
  <g stroke="None" fill-opacity="1.00" fill="#1A96C2">
    <path d="M 647.00 652.00
C 644.98 649.78 640.84 651.59 638.00 651.00
C 640.02 653.22 644.16 651.41 647.00 652.00 Z"/>
  </g>
</svg>
